<svg width="19" height="18" viewBox="0 0 19 18" fill="none" xmlns="http://www.w3.org/2000/svg">
<g id="Vector">
<path id="Vector_2" fill-rule="evenodd" clip-rule="evenodd" d="M17.8197 7.83157H4.02554L9.38264 2.50753C9.49369 2.39902 9.58212 2.2698 9.64207 2.1272C9.703 1.9846 9.73447 1.83155 9.73447 1.67684C9.73545 1.52213 9.70496 1.36879 9.646 1.2257C9.58703 1.08271 9.49958 0.952712 9.38951 0.843321C9.27944 0.733929 9.14873 0.647199 9.00426 0.588303C8.86078 0.529408 8.70648 0.499422 8.55121 0.500008C8.39495 0.500594 8.24065 0.531947 8.09716 0.592014C7.95368 0.652082 7.82394 0.739791 7.71486 0.850061L0.344086 8.17537C0.341138 8.17732 0.340166 8.18123 0.337218 8.18416C0.175061 8.34815 0.0659595 8.5557 0.0217349 8.78112C-0.0224897 9.00645 0.00109696 9.23969 0.0895462 9.45193C0.148512 9.59159 0.232062 9.71564 0.337218 9.82308L0.344086 9.83284L7.71486 17.1581C7.94581 17.3867 8.24754 17.5 8.54827 17.5C8.78118 17.5 9.00918 17.4312 9.20377 17.3025C9.39737 17.1739 9.54873 16.9908 9.63718 16.7767C9.72661 16.5627 9.7502 16.3272 9.70499 16.0998C9.65978 15.8725 9.54774 15.6637 9.38264 15.4997L4.02653 10.1757H17.8207C18.1332 10.1757 18.433 10.0522 18.6551 9.83235C18.8762 9.61259 19 9.3145 19 9.00362C19 8.69273 18.8762 8.39464 18.6551 8.17488C18.433 7.95502 18.1332 7.83157 17.8207 7.83157" fill="#868686"/>
</g>
</svg>
