<svg width="13" height="22" viewBox="0 0 13 22" fill="none" xmlns="http://www.w3.org/2000/svg">
<path fill-rule="evenodd" clip-rule="evenodd" d="M10.4083 0.894702C10.1958 0.894577 9.98451 0.938058 9.78883 1.02278C9.59196 1.10751 9.4131 1.2316 9.26305 1.38809L1.15997 9.79815C1.00991 9.95439 0.889864 10.1398 0.808233 10.3439C0.726602 10.548 0.684571 10.7667 0.684571 10.9876C0.684571 11.2087 0.726602 11.4273 0.808233 11.6315C0.889864 11.8356 1.00991 12.021 1.15997 12.1773L9.26304 20.5873C9.4119 20.7489 9.59075 20.878 9.78883 20.967C9.9869 21.0558 10.2006 21.1029 10.4167 21.1051C10.6316 21.1075 10.8464 21.065 11.0457 20.9804C11.245 20.8957 11.4263 20.7705 11.5787 20.6121C11.7312 20.4538 11.8524 20.2654 11.934 20.0579C12.0145 19.8506 12.0553 19.6285 12.0529 19.4046C12.0505 19.1807 12.0061 18.9595 11.9197 18.7541C11.8344 18.5486 11.7096 18.3631 11.5535 18.2082L4.59807 10.9868L11.5535 3.7672C11.7804 3.5321 11.9353 3.23232 11.9977 2.90588C12.0613 2.57957 12.0289 2.24118 11.9064 1.93356C11.784 1.62606 11.5763 1.36317 11.3086 1.17828C11.0421 0.993254 10.7288 0.894577 10.4083 0.894702Z" fill="white"/>
</svg>
