<svg width="19" height="18" viewBox="0 0 19 18" fill="none" xmlns="http://www.w3.org/2000/svg">
<g id="Vector">
<path id="Vector_2" fill-rule="evenodd" clip-rule="evenodd" d="M1.1803 7.83157H14.9745L9.61736 2.50753C9.50631 2.39902 9.41788 2.2698 9.35793 2.1272C9.297 1.9846 9.26553 1.83155 9.26553 1.67684C9.26455 1.52213 9.29504 1.36879 9.354 1.2257C9.41297 1.08271 9.50042 0.952712 9.61049 0.843321C9.72056 0.733929 9.85127 0.647199 9.99574 0.588303C10.1392 0.529408 10.2935 0.499422 10.4488 0.500008C10.6051 0.500594 10.7594 0.531947 10.9028 0.592014C11.0463 0.652082 11.1761 0.739791 11.2851 0.850061L18.6559 8.17537C18.6589 8.17732 18.6598 8.18123 18.6628 8.18416C18.8249 8.34815 18.934 8.5557 18.9783 8.78112C19.0225 9.00645 18.9989 9.23969 18.9105 9.45193C18.8515 9.59159 18.7679 9.71564 18.6628 9.82308L18.6559 9.83284L11.2851 17.1581C11.0542 17.3867 10.7525 17.5 10.4517 17.5C10.2188 17.5 9.99082 17.4312 9.79623 17.3025C9.60263 17.1739 9.45127 16.9908 9.36282 16.7767C9.27339 16.5627 9.2498 16.3272 9.29501 16.0998C9.34022 15.8725 9.45226 15.6637 9.61736 15.4997L14.9735 10.1757H1.17931C0.866785 10.1757 0.567041 10.0522 0.344934 9.83235C0.123812 9.61259 0 9.3145 0 9.00362C0 8.69273 0.123812 8.39464 0.344934 8.17488C0.567041 7.95502 0.866785 7.83157 1.17931 7.83157" fill="#868686"/>
</g>
</svg>
