<svg width="13" height="22" viewBox="0 0 13 22" fill="current" xmlns="http://www.w3.org/2000/svg">
<path fill-rule="evenodd" clip-rule="evenodd" d="M2.59173 21.1053C2.80421 21.1054 3.0155 21.0619 3.21117 20.9772C3.40805 20.8925 3.5869 20.7684 3.73696 20.6119L11.84 12.2019C11.9901 12.0456 12.1101 11.8602 12.1918 11.6561C12.2734 11.452 12.3154 11.2333 12.3154 11.0124C12.3154 10.7913 12.2734 10.5727 12.1918 10.3685C12.1101 10.1644 11.9901 9.97898 11.84 9.82274L3.73696 1.41268C3.5881 1.25108 3.40925 1.122 3.21117 1.03304C3.0131 0.944207 2.7994 0.897112 2.58332 0.894869C2.36844 0.892502 2.15355 0.934988 1.95428 1.01959C1.755 1.10431 1.57373 1.22953 1.42128 1.38788C1.26882 1.54624 1.14758 1.73463 1.06595 1.94208C0.985522 2.1494 0.944708 2.37155 0.947109 2.59544C0.949509 2.81934 0.993917 3.04049 1.08035 3.24595C1.16558 3.4514 1.29044 3.63692 1.4465 3.79179L8.40193 11.0132L1.4465 18.2328C1.21961 18.4679 1.06474 18.7677 1.00232 19.0941C0.938693 19.4204 0.97111 19.7588 1.09356 20.0664C1.216 20.3739 1.42368 20.6368 1.69139 20.8217C1.95789 21.0067 2.27121 21.1054 2.59173 21.1053Z" fill="current"/>
</svg>
