<svg width="23" height="20" viewBox="0 0 23 20" fill="current" xmlns="http://www.w3.org/2000/svg">
<path id="Vector" d="M7.68399 19.7696C5.78399 19.7696 3.78398 19.0696 2.38398 17.5696C-0.516016 14.6696 -0.516016 9.86957 2.38398 6.86957L6.88398 2.36957C7.28398 1.96957 7.98398 1.96957 8.48398 2.36957C8.88398 2.76957 8.88398 3.46958 8.48398 3.96958L3.98398 8.46958C1.88399 10.5696 1.88399 13.9696 3.98398 15.9696C6.08398 18.0696 9.48398 18.0696 11.484 15.9696L19.284 8.16957C20.484 6.96957 20.484 4.86957 19.284 3.66957C18.084 2.46957 15.984 2.46957 14.784 3.66957L7.68399 10.7696C7.28399 11.1696 7.28399 11.8696 7.68399 12.2696C8.08399 12.6696 8.78399 12.6696 9.18399 12.2696L13.984 7.46958C14.384 7.06958 15.084 7.06958 15.584 7.46958C15.984 7.86958 15.984 8.56957 15.584 9.06957L10.784 13.8696C9.38398 15.1696 7.28398 15.1696 6.08398 13.8696C4.78398 12.5696 4.78398 10.5696 6.08398 9.26958L13.184 2.16957C15.284 0.069574 18.684 0.069574 20.784 2.16957C22.884 4.26957 22.884 7.66958 20.784 9.76958L12.984 17.5696C11.584 18.9696 9.68399 19.7696 7.68399 19.7696Z" fill="current"/>
</svg>
