<svg width="27" height="28" viewBox="0 0 27 28" fill="current" xmlns="http://www.w3.org/2000/svg">
<path fill-rule="evenodd" clip-rule="evenodd" d="M16.4738 14.1813L26.3828 4.27469C26.5774 4.07939 26.7335 3.84746 26.8387 3.59222C26.9457 3.33697 27 3.06332 27 2.78686C27 2.51057 26.9456 2.23692 26.8404 1.98168C26.7335 1.72626 26.5792 1.49433 26.3828 1.29886C26.1881 1.10339 25.9567 0.948419 25.7007 0.842534C25.4464 0.736648 25.1711 0.682129 24.8958 0.682129C24.6188 0.681954 24.3452 0.736299 24.0892 0.842009C23.8349 0.947718 23.6018 1.10269 23.4071 1.29798L13.4981 11.2063L3.58735 1.29798C3.18755 0.925278 2.65976 0.722099 2.11442 0.731566C1.56733 0.740857 1.04652 0.962096 0.660754 1.3483C0.274985 1.7345 0.0540625 2.25568 0.0435415 2.80158C0.034774 3.34766 0.238188 3.87586 0.611683 4.27469L10.5224 14.1813L0.611683 24.0878C0.318849 24.3827 0.118917 24.7575 0.0400097 25.1652C-0.0406511 25.573 0.00142081 25.9953 0.159235 26.3792C0.318803 26.7632 0.588871 27.0915 0.934309 27.3229C1.27799 27.5543 1.68482 27.6784 2.1004 27.6798C2.63872 27.6798 3.17703 27.4747 3.58735 27.0645L13.4981 17.1562L23.4071 27.0645C23.6018 27.2603 23.8349 27.4157 24.0892 27.5215C24.3452 27.6276 24.6188 27.6821 24.8941 27.6821C25.1711 27.6821 25.4447 27.6276 25.7007 27.5215C25.9549 27.4157 26.1881 27.2603 26.3828 27.0645C26.5792 26.8691 26.7335 26.6371 26.8387 26.3817C26.9457 26.1263 27 25.8526 27 25.5762C27 25.2997 26.9457 25.0259 26.8387 24.7706C26.7335 24.5152 26.5792 24.2831 26.3828 24.0878L16.4738 14.1813Z" fill="current"/>
</svg>
