<svg width="22" height="23" viewBox="0 0 22 23" fill="current" xmlns="http://www.w3.org/2000/svg">
<path id="Vector" fill-rule="evenodd" clip-rule="evenodd" d="M21.2198 16.536L17.2408 13.456C17.0488 13.308 16.8088 13.235 16.5668 13.25C16.3248 13.266 16.0968 13.369 15.9248 13.541L13.8128 15.654C13.6558 15.813 13.4488 15.914 13.2268 15.941C13.0048 15.968 12.7808 15.919 12.5898 15.803C11.9098 15.386 10.7718 14.578 9.34776 13.153C7.92376 11.73 7.11577 10.591 6.69877 9.91198C6.58177 9.72098 6.53377 9.49698 6.56077 9.27498C6.58777 9.05298 6.68976 8.84696 6.84876 8.68996L8.96076 6.57699C9.13276 6.40599 9.23678 6.17699 9.25178 5.93499C9.26678 5.69299 9.19378 5.45298 9.04478 5.26098L5.96577 1.28097C5.26577 0.377966 3.94576 0.234981 3.08576 0.989981C1.95276 1.98398 0.591778 3.47297 0.195778 5.14397C-0.521222 8.15397 0.611773 11.931 5.59177 16.911C10.5718 21.89 14.3488 23.024 17.3578 22.308C19.0288 21.91 20.5188 20.548 21.5128 19.416C22.2668 18.556 22.1238 17.236 21.2198 16.536Z" fill="current"/>
</svg>
