<svg width="58" height="58" viewBox="0 0 58 64" fill="none" xmlns="http://www.w3.org/2000/svg">
<g id="layer1">
<path id="polygon2989" d="M57.2321 0L52.091 57.5933L28.9815 64L5.9357 57.6023L0.800049 0H57.2321Z" fill="#264DE4"/>
<path id="polygon2991" d="M29.0161 59.103L47.6897 53.926L52.0831 4.70984H29.0161V59.103Z" fill="#2965F1"/>
<path id="polygon2993" d="M29.0161 26.0737H12.5735L13.2067 33.1383H29.0161V26.0737Z" fill="#EBEBEB"/>
<path id="polygon2995" d="M29.0162 11.7747H28.9918H11.3013L11.9435 18.8394H29.0162V11.7747Z" fill="#EBEBEB"/>
<path id="polygon2997" d="M13.5222 36.6708L14.512 47.7634L28.9835 51.7808L29.016 51.7718V44.4215L28.985 44.4298L21.117 42.3053L20.6141 36.6708H16.7908H13.5222Z" fill="#EBEBEB"/>
<path id="polygon3005" d="M37.6911 33.1384L36.8711 42.3008L28.9917 44.4274V51.7774L43.4747 47.7634L43.581 46.5699L45.2411 27.9708L45.4135 26.0738L46.6889 11.7747H28.9917V18.8394H38.9466L38.3037 26.0738H28.9917V33.1384H37.6911Z" fill="white"/>
</g>
</svg>
