<svg width="35" height="35" viewBox="0 0 35 35" fill="none" xmlns="http://www.w3.org/2000/svg">
<path d="M32.9394 0L30.1278 31.4963L17.4899 35L4.88669 31.5013L2.07812 0H32.9394Z" fill="#264DE4"/>
<path d="M17.5088 32.3219L27.7209 29.4907L30.1235 2.57568H17.5088V32.3219Z" fill="#2965F1"/>
<path d="M17.5087 14.259H8.5166L8.86288 18.1225H17.5087V14.259Z" fill="#EBEBEB"/>
<path d="M17.5091 6.43921H17.4958H7.82129L8.1725 10.3028H17.5091V6.43921Z" fill="#EBEBEB"/>
<path d="M9.03516 20.0543L9.57643 26.1206L17.4905 28.3176L17.5083 28.3126V24.293L17.4914 24.2975L13.1886 23.1356L12.9135 20.0543H10.8227H9.03516Z" fill="#EBEBEB"/>
<path d="M22.2526 18.1225L21.8041 23.1332L17.4951 24.2962V28.3157L25.4155 26.1206L25.4736 25.4678L26.3815 15.2965L26.4758 14.259L27.1733 6.43921H17.4951V10.3028H22.9392L22.5876 14.259H17.4951V18.1225H22.2526Z" fill="white"/>
</svg>
