<svg width="33" height="33" viewBox="0 0 33 33" fill="current" xmlns="http://www.w3.org/2000/svg">
<g clip-path="url(#clip0_72_827)">
<path d="M16.5 0.682129C25.34 0.682129 32.5 8.02323 32.5 17.0868C32.4991 20.524 31.447 23.8744 29.4917 26.6664C27.5364 29.4584 24.7763 31.5514 21.6 32.6508C20.8 32.8148 20.5 32.3022 20.5 31.8716C20.5 31.3179 20.52 29.5544 20.52 27.3603C20.52 25.8223 20.02 24.8381 19.44 24.3254C23 23.9153 26.74 22.5209 26.74 16.2256C26.74 14.4211 26.12 12.9651 25.1 11.8168C25.26 11.4067 25.82 9.72522 24.94 7.46957C24.94 7.46957 23.6 7.01845 20.54 9.15106C19.26 8.78195 17.9 8.5974 16.54 8.5974C15.18 8.5974 13.82 8.78195 12.54 9.15106C9.48 7.03895 8.14 7.46957 8.14 7.46957C7.26 9.72522 7.82 11.4067 7.98 11.8168C6.96 12.9651 6.34 14.4416 6.34 16.2256C6.34 22.5004 10.06 23.9153 13.62 24.3254C13.16 24.7355 12.74 25.4532 12.6 26.5195C11.68 26.9502 9.38 27.6474 7.94 25.1661C7.64 24.674 6.74 23.4642 5.48 23.4847C4.14 23.5052 4.94 24.2639 5.5 24.5715C6.18 24.9611 6.96 26.417 7.14 26.8886C7.46 27.8114 8.5 29.5749 12.52 28.8162C12.52 30.1901 12.54 31.482 12.54 31.8716C12.54 32.3022 12.24 32.7943 11.44 32.6508C8.25328 31.5632 5.48147 29.4745 3.51778 26.6808C1.55409 23.8871 0.498239 20.5304 0.500002 17.0868C0.500002 8.02323 7.66 0.682129 16.5 0.682129Z" fill="current"/>
</g>
<defs>
<clipPath id="clip0_72_827">
<rect width="32" height="32" fill="white" transform="translate(0.5 0.682129)"/>
</clipPath>
</defs>
</svg>
