<svg width="35" height="35" viewBox="0 0 35 35" fill="none" xmlns="http://www.w3.org/2000/svg">
<path d="M4.87809 31.5022L2.06934 0.00109863H32.9306L30.1196 31.4978L17.4803 35L4.87809 31.5022Z" fill="#E44D26"/>
<path d="M27.7123 29.4919L30.1153 2.5769H17.5V32.3236L27.7123 29.4919Z" fill="#F16529"/>
<path d="M17.4868 6.43994H7.81152L8.85387 18.1234H17.5V14.2603H12.3878L12.0345 10.3042H17.5V6.43994H17.4868ZM17.5 24.2812L17.4836 24.2856L13.1807 23.124L12.9073 20.0429H9.02668L9.56809 26.1088L17.4825 28.2963L17.5 28.2909V24.2812Z" fill="#EBEBEB"/>
<path d="M17.4866 18.1234H22.2444L21.8069 23.1328L17.4975 24.2954V28.3149L25.4184 26.1198L26.4794 14.2581H17.4997L17.4866 18.1234ZM27.0722 7.47682L27.1641 6.43994H17.4844V10.3031H26.8162L26.8928 9.43463L27.0722 7.47682Z" fill="white"/>
</svg>
