<svg width="58" height="58" viewBox="0 0 58 59" fill="none" xmlns="http://www.w3.org/2000/svg">
<g id="Icon/HTML" clip-path="url(#clip0_71_1570)">
<path id="Vector" d="M8.5837 52.8857L3.9292 0.683899H55.0707L50.4126 52.8785L29.4673 58.6821L8.5837 52.8857Z" fill="#E44D26"/>
<path id="Vector_2" d="M46.4233 49.5543L50.4054 4.95233H29.5V54.2469L46.4233 49.5543Z" fill="#F16529"/>
<path id="Vector_3" d="M29.4782 11.3541H13.4448L15.1721 30.7152H29.4999V24.3134H21.0283L20.4429 17.7576H29.4999V11.3541H29.4782ZM29.4999 40.9196L29.4728 40.9268L22.3424 39.0019L21.8893 33.8961H15.4585L16.3557 43.9482L29.4709 47.5732L29.4999 47.5642V40.9196Z" fill="#EBEBEB"/>
<path id="Vector_4" d="M29.4782 30.7152H37.3626L36.6376 39.0164L29.4964 40.9431V47.6041L42.6225 43.9664L44.3806 24.3098H29.5L29.4782 30.7152ZM45.363 13.0723L45.5152 11.3541H29.4746V17.7558H44.9389L45.0657 16.3167L45.363 13.0723Z" fill="white"/>
</g>
<defs>
<clipPath id="clip0_71_1570">
<rect width="58" height="58" fill="white" transform="translate(0.5 0.682068)"/>
</clipPath>
</defs>
</svg>
