<svg width="35" height="35" viewBox="0 0 35 35" fill="none" xmlns="http://www.w3.org/2000/svg">
<g clip-path="url(#clip0_38_280)">
<path d="M0 0H35V35H0V0Z" fill="#F7DF1E"/>
<path d="M9.20318 29.2485L11.8816 27.6276C12.3983 28.5437 12.8684 29.3189 13.9959 29.3189C15.0767 29.3189 15.7581 28.8961 15.7581 27.2517V16.0684H19.0472V27.2982C19.0472 30.7049 17.0503 32.2555 14.1369 32.2555C11.5057 32.2555 9.9784 30.8927 9.20312 29.2482" fill="black"/>
<path d="M20.833 28.8961L23.5111 27.3455C24.2161 28.4969 25.1324 29.3426 26.7534 29.3426C28.1162 29.3426 28.9853 28.6612 28.9853 27.7214C28.9853 26.5937 28.0926 26.1943 26.5889 25.5366L25.7668 25.184C23.3938 24.1739 21.8196 22.9053 21.8196 20.2269C21.8196 17.76 23.6991 15.8804 26.636 15.8804C28.727 15.8804 30.2306 16.6088 31.3112 18.5118L28.7503 20.1563C28.1865 19.1461 27.5758 18.7468 26.6361 18.7468C25.6728 18.7468 25.0619 19.3576 25.0619 20.1563C25.0619 21.1431 25.6728 21.5426 27.0823 22.1535L27.9045 22.5059C30.7003 23.7041 32.2745 24.9257 32.2745 27.6744C32.2745 30.6349 29.9486 32.2558 26.824 32.2558C23.7697 32.2558 21.7961 30.7993 20.833 28.8961Z" fill="black"/>
</g>
<defs>
<clipPath id="clip0_38_280">
<rect width="35" height="35" rx="8" fill="white"/>
</clipPath>
</defs>
</svg>
