<svg width="21" height="21" viewBox="0 0 21 21" fill="current" xmlns="http://www.w3.org/2000/svg">
<path id="Vector" fill-rule="evenodd" clip-rule="evenodd" d="M1.904 8.70712C1.399 8.70712 0.914693 8.9081 0.557693 9.2651C0.200593 9.6221 0 10.1061 0 10.6111V18.5981C0 19.6501 0.851999 20.5031 1.904 20.5031H3.834V8.70712H1.904ZM17.363 6.50012H12.821V2.2391C12.8212 1.8571 12.6952 1.48509 12.4625 1.18209C12.2299 0.878092 11.9035 0.66012 11.5342 0.56112C11.1649 0.46212 10.7733 0.488118 10.4201 0.634118C10.0669 0.781118 9.77189 1.04012 9.58099 1.37112L5.34499 8.70712H5.334V20.5031H14.568C15.4194 20.5031 16.2462 20.2181 16.9165 19.6931C17.5868 19.1681 18.0619 18.4341 18.266 17.6071L20.136 10.0431C20.2401 9.62211 20.247 9.18312 20.1563 8.75912C20.0656 8.33512 19.8796 7.93809 19.6124 7.59609C19.3452 7.25509 19.0038 6.97912 18.6141 6.78912C18.2244 6.59912 17.7965 6.50012 17.363 6.50012Z" fill="current"/>
</svg>
