<svg width="22" height="24" viewBox="0 0 22 24" fill="current" xmlns="http://www.w3.org/2000/svg">
<g id="Vector">
<path id="Vector_2" fill-rule="evenodd" clip-rule="evenodd" d="M16.0798 12.9816C15.8707 12.987 15.6626 12.9484 15.4678 12.868C15.2719 12.7876 15.0944 12.6676 14.9445 12.5134C14.7945 12.3601 14.6762 12.1769 14.5946 11.9744C14.513 11.7709 14.4712 11.5534 14.4712 11.3337C14.4712 11.1141 14.514 10.8965 14.5946 10.693C14.6762 10.4905 14.7956 10.3073 14.9455 10.154C15.0954 10.0008 15.2729 9.87976 15.4678 9.79941C15.6636 9.72012 15.8717 9.68154 16.0808 9.68689C16.4898 9.69761 16.8785 9.87653 17.1641 10.184C17.4497 10.4926 17.6088 10.9051 17.6088 11.3348C17.6088 11.7644 17.4487 12.1769 17.1631 12.4844C16.8775 12.793 16.4888 12.9709 16.0798 12.9816ZM11.0673 12.9816C10.8582 12.987 10.6491 12.9484 10.4543 12.868C10.2594 12.7876 10.082 12.6676 9.93201 12.5134C9.78206 12.3601 9.66271 12.1759 9.5811 11.9734C9.4995 11.7709 9.45769 11.5523 9.45769 11.3326C9.45769 11.113 9.50052 10.8944 9.5811 10.6919C9.66271 10.4894 9.78206 10.3051 9.93201 10.1519C10.082 9.99867 10.2605 9.87761 10.4553 9.79725C10.6501 9.71796 10.8592 9.67941 11.0683 9.68477C11.4774 9.69548 11.867 9.87441 12.1526 10.183C12.4382 10.4905 12.5974 10.9041 12.5974 11.3337C12.5974 11.7634 12.4372 12.1769 12.1516 12.4844C11.866 12.7919 11.4763 12.9709 11.0673 12.9816ZM6.05381 12.9816C5.8447 12.987 5.63661 12.9484 5.44178 12.868C5.24593 12.7876 5.06845 12.6676 4.9185 12.5134C4.76855 12.3601 4.65024 12.1769 4.56864 11.9744C4.48704 11.7709 4.44521 11.5534 4.44521 11.3337C4.44521 11.1141 4.48806 10.8965 4.56864 10.693C4.65024 10.4905 4.76958 10.3073 4.91953 10.154C5.06947 10.0008 5.24695 9.87976 5.44178 9.79941C5.63763 9.72012 5.84571 9.68154 6.05482 9.68689C6.46386 9.69761 6.85251 9.87653 7.13812 10.184C7.42373 10.4926 7.58284 10.9051 7.58284 11.3348C7.58284 11.7644 7.4227 12.1769 7.13709 12.4844C6.85148 12.793 6.46285 12.9709 6.05381 12.9816ZM11 0.931061C5.05009 0.931061 0.208984 5.55327 0.208984 11.2351C0.208984 13.6673 1.18821 16.977 3.9158 19.1135L3.5945 22.6428C3.58226 22.7724 3.6047 22.9042 3.65774 23.0221C3.71078 23.14 3.79442 23.2407 3.89745 23.3124C4.00149 23.3853 4.12185 23.426 4.2463 23.4324C4.37074 23.4378 4.49417 23.4078 4.60332 23.3457L8.10307 21.3678C8.53863 21.4149 9.81776 21.5392 11 21.5392C16.9499 21.5392 21.791 16.917 21.791 11.2351C21.791 5.55327 16.9499 0.931061 11 0.931061Z" fill="current"/>
</g>
</svg>
