<svg width="288" height="289" viewBox="0 0 288 289" fill="none" xmlns="http://www.w3.org/2000/svg">
<path d="M66.9332 208.171C89.8706 206.248 112.085 199.185 131.939 187.502C151.793 175.82 168.779 159.816 181.646 140.672C194.513 121.527 202.932 99.729 206.282 76.8857C209.632 54.0423 207.828 30.7359 201.003 8.68503C200.6 7.37489 200.607 5.97237 201.023 4.66635C201.439 3.36032 202.244 2.21352 203.33 1.38039C204.415 0.547271 205.729 0.0678449 207.094 0.00668021C208.46 -0.0544845 209.811 0.305551 210.966 1.0383C231.42 12.8561 248.887 29.2378 262.015 48.9147C275.144 68.5916 283.581 91.0357 286.674 114.509C289.767 137.982 287.432 161.854 279.851 184.277C272.269 206.7 259.644 227.071 242.954 243.814C226.264 260.556 205.956 273.22 183.603 280.825C161.25 288.43 137.452 290.772 114.052 287.67C90.652 284.567 68.2778 276.104 48.6621 262.934C29.0464 249.765 12.7157 232.243 0.934753 211.726C0.250679 210.568 -0.0704938 209.231 0.01297 207.888C0.0964337 206.545 0.580678 205.258 1.40277 204.195C2.22486 203.131 3.3468 202.341 4.62277 201.925C5.89875 201.51 7.26977 201.489 8.55768 201.866C27.434 207.698 47.2517 209.839 66.9332 208.171Z" fill="url(#paint0_linear_94_430)" fill-opacity="0.7"/>
<defs>
<linearGradient id="paint0_linear_94_430" x1="59.6136" y1="15.8047" x2="244.089" y2="261.588" gradientUnits="userSpaceOnUse">
<stop offset="0.05" stop-color="#C1A500"/>
<stop offset="0.335" stop-color="#CCAE00"/>
<stop offset="0.625" stop-color="#EFCC00"/>
<stop offset="0.97" stop-color="#FFF4BC"/>
</linearGradient>
</defs>
</svg>
