<svg width="22" height="22" viewBox="0 0 22 22" fill="current" xmlns="http://www.w3.org/2000/svg">
<path id="Vector" fill-rule="evenodd" clip-rule="evenodd" d="M14.686 4.894C14.6861 5.537 14.5595 6.173 14.3136 6.767C14.0676 7.361 13.7071 7.901 13.2526 8.355C12.7981 8.81 12.2585 9.17101 11.6647 9.41701C11.0708 9.66301 10.4343 9.789 9.7915 9.79C8.4933 9.79 7.2481 9.274 6.3301 8.356C5.412 7.438 4.8961 6.193 4.896 4.895C4.8959 4.252 5.0225 3.616 5.2684 3.022C5.5143 2.428 5.8749 1.888 6.3293 1.434C7.2472 0.515 8.4923 1.45078e-06 9.7905 1.45078e-06C11.0887 -0.000998549 12.3338 0.515 13.2519 1.433C14.17 2.351 14.6859 3.596 14.686 4.894ZM9.791 11.287C2.742 11.287 0 15.773 0 17.86C0 19.946 5.837 20.502 9.791 20.502C13.745 20.502 19.582 19.946 19.582 17.86C19.582 15.773 16.84 11.287 9.791 11.287Z" fill="current"/>
</svg>
