<svg width="58" height="58" viewBox="0 0 59 53" fill="none" xmlns="http://www.w3.org/2000/svg">
<g id="Group">
<path id="Vector" d="M29.5003 31.8134C32.3607 31.8134 34.6795 29.4946 34.6795 26.6341C34.6795 23.7737 32.3607 21.4549 29.5003 21.4549C26.6399 21.4549 24.321 23.7737 24.321 26.6341C24.321 29.4946 26.6399 31.8134 29.5003 31.8134Z" fill="#00D8FF"/>
<g id="Group_2">
<path id="Vector_2" fill-rule="evenodd" clip-rule="evenodd" d="M29.5003 16.1037C36.4541 16.1037 42.9141 17.1015 47.7848 18.7783C53.6534 20.7987 57.2617 23.8612 57.2617 26.6342C57.2617 29.5239 53.4376 32.7773 47.1356 34.8653C42.371 36.4438 36.1013 37.2679 29.5003 37.2679C22.7325 37.2679 16.3238 36.4944 11.5056 34.848C5.40966 32.7644 1.73804 29.4688 1.73804 26.6342C1.73804 23.8837 5.18316 20.8449 10.9692 18.8276C15.8582 17.1231 22.4776 16.1037 29.4994 16.1037H29.5003Z" stroke="#00D8FF" stroke-width="2.73408"/>
<path id="Vector_3" fill-rule="evenodd" clip-rule="evenodd" d="M20.3333 21.3993C23.8073 15.3754 27.8987 10.2778 31.7847 6.89611C36.4666 2.82164 40.9221 1.22596 43.3242 2.61113C45.8276 4.05474 46.7355 8.99281 45.3959 15.4951C44.3842 20.4112 41.9648 26.2539 38.6671 31.9722C35.286 37.835 31.4145 43.0003 27.5815 46.3506C22.7313 50.5905 18.0422 52.1248 15.5866 50.7087C13.2038 49.3356 12.2926 44.8323 13.4357 38.812C14.4015 33.7254 16.8253 27.482 20.3321 21.3992L20.3333 21.3993Z" stroke="#00D8FF" stroke-width="2.73408"/>
<path id="Vector_4" fill-rule="evenodd" clip-rule="evenodd" d="M20.3418 31.9876C16.858 25.9705 14.4861 19.8788 13.496 14.8234C12.3042 8.73223 13.1468 4.07508 15.5468 2.68588C18.0476 1.23804 22.7792 2.91755 27.7435 7.32549C31.4969 10.6581 35.3511 15.6711 38.6584 21.384C42.0492 27.2411 44.5905 33.175 45.5792 38.169C46.8301 44.4886 45.8177 49.3172 43.3644 50.7374C40.984 52.1154 36.628 50.6565 31.9832 46.6594C28.0587 43.2824 23.8601 38.0644 20.3418 31.9875V31.9876Z" stroke="#00D8FF" stroke-width="2.73408"/>
</g>
</g>
</svg>
