<svg width="35" height="35" viewBox="0 0 35 35" fill="none" xmlns="http://www.w3.org/2000/svg">
<path d="M17.5011 20.5774C19.0981 20.5774 20.3927 19.2828 20.3927 17.6857C20.3927 16.0887 19.0981 14.7941 17.5011 14.7941C15.904 14.7941 14.6094 16.0887 14.6094 17.6857C14.6094 19.2828 15.904 20.5774 17.5011 20.5774Z" fill="#00D8FF"/>
<path fill-rule="evenodd" clip-rule="evenodd" d="M17.5003 11.8063C21.3827 11.8063 24.9894 12.3634 27.7089 13.2996C30.9854 14.4276 33 16.1374 33 17.6857C33 19.299 30.865 21.1155 27.3464 22.2813C24.6863 23.1626 21.1857 23.6227 17.5003 23.6227C13.7217 23.6227 10.1435 23.1908 7.45342 22.2716C4.04995 21.1083 2 19.2683 2 17.6857C2 16.15 3.92348 14.4534 7.15398 13.3271C9.88357 12.3754 13.5793 11.8063 17.4997 11.8063H17.5003Z" stroke="#00D8FF" stroke-width="2.73408"/>
<path fill-rule="evenodd" clip-rule="evenodd" d="M12.3807 14.763C14.3203 11.3997 16.6046 8.55364 18.7743 6.66555C21.3883 4.39069 23.8759 3.49979 25.217 4.27316C26.6147 5.07915 27.1216 7.83618 26.3737 11.4665C25.8088 14.2113 24.4581 17.4734 22.6169 20.666C20.7292 23.9394 18.5676 26.8233 16.4276 28.6938C13.7196 31.061 11.1015 31.9177 9.73055 31.127C8.40019 30.3604 7.89145 27.8461 8.52966 24.4849C9.06889 21.6449 10.4221 18.1591 12.3801 14.7629L12.3807 14.763Z" stroke="#00D8FF" stroke-width="2.73408"/>
<path fill-rule="evenodd" clip-rule="evenodd" d="M12.3872 20.6747C10.4421 17.3153 9.11782 13.9142 8.56504 11.0916C7.89964 7.6908 8.3701 5.09062 9.71003 4.315C11.1063 3.50664 13.7481 4.44434 16.5197 6.90539C18.6153 8.76604 20.7672 11.5649 22.6137 14.7545C24.5069 18.0247 25.9258 21.3377 26.4778 24.1259C27.1762 27.6543 26.6109 30.3503 25.2412 31.1432C23.9122 31.9126 21.4801 31.098 18.8868 28.8663C16.6957 26.9809 14.3515 24.0676 12.3872 20.6747V20.6747Z" stroke="#00D8FF" stroke-width="2.73408"/>
</svg>
