<svg width="17" height="16" viewBox="0 0 17 16" fill="current" xmlns="http://www.w3.org/2000/svg">
<g id="Vector">
<path id="Vector_2" d="M0.775294 14.393L4.38863 10.7799C3.53765 9.65207 3.02706 8.2545 3.02706 6.73614C3.02706 3.02181 6.0498 0 9.76353 0C13.478 0.000784275 16.5 3.0226 16.5 6.73692C16.5 10.4505 13.478 13.4731 9.76353 13.4731C8.24588 13.4731 6.84745 12.9625 5.71961 12.1116L2.10627 15.7247C1.92274 15.9082 1.68196 16 1.44118 16C1.20039 16 0.959608 15.9082 0.775294 15.7239C0.408236 15.3569 0.408236 14.7608 0.775294 14.393ZM14.6176 6.73692C14.6176 4.06019 12.4404 1.88305 9.76353 1.88305C7.08745 1.88305 4.9102 4.06019 4.9102 6.73614C4.9102 9.41209 7.08745 11.5892 9.76353 11.5892C12.4404 11.59 14.6176 9.41287 14.6176 6.73692Z" fill="current"/>
</g>
</svg>
