<svg width="35" height="35" viewBox="0 0 35 35" fill="none" xmlns="http://www.w3.org/2000/svg">
<g clip-path="url(#clip0_38_536)">
<path d="M24.2513 24.3469C25.5429 24.2067 26.5228 23.0384 26.4783 21.6365C26.4337 20.2346 25.3202 19.113 23.9841 19.113H23.895C22.5143 19.1598 21.4453 20.3748 21.4899 21.8234C21.5344 22.5244 21.8017 23.1319 22.2025 23.5525C20.6882 26.6835 18.3722 28.9733 14.8981 30.8893C12.5376 32.1977 10.0879 32.665 7.63827 32.3379C5.63401 32.0575 4.07515 31.1229 3.09529 29.5808C1.67004 27.291 1.53643 24.8142 2.73898 22.3375C3.58522 20.5617 4.92139 19.2532 5.76763 18.599C5.58947 17.9915 5.32224 16.9634 5.18862 16.2157C-1.26953 21.1225 -0.601444 27.7583 1.35827 30.8893C2.82806 33.2258 5.81217 34.6745 9.10805 34.6745C9.99883 34.6745 10.8896 34.581 11.7804 34.3474C17.4814 33.1791 21.8017 29.6275 24.2513 24.3469ZM32.0902 18.5523C28.7052 14.3932 23.7168 12.1034 18.0158 12.1034H17.3032C16.9024 11.2622 16.0561 10.7014 15.1208 10.7014H15.0317C13.651 10.7482 12.5821 11.9632 12.6266 13.4118C12.6712 14.8138 13.7846 15.9353 15.1208 15.9353H15.2099C16.1897 15.8886 17.036 15.2343 17.3923 14.3465H18.194C21.579 14.3465 24.7858 15.3745 27.6808 17.384C29.9078 18.9261 31.5112 20.9355 32.4019 23.3656C33.1591 25.3283 33.1146 27.2442 32.3129 28.8798C31.0658 31.3566 28.9724 32.7118 26.211 32.7118C24.4295 32.7118 22.737 32.151 21.8462 31.7304C21.3563 32.1977 20.4655 32.9454 19.8419 33.4127C21.7571 34.3474 23.7168 34.8614 25.5875 34.8614C29.8632 34.8614 33.0255 32.3847 34.228 29.9079C35.5197 27.1975 35.4306 22.5244 32.0902 18.5523ZM9.46436 25.1413C9.5089 26.5433 10.6224 27.6648 11.9585 27.6648H12.0476C13.4283 27.6181 14.4973 26.4031 14.4527 24.9544C14.4082 23.5525 13.2947 22.4309 11.9585 22.4309H11.8695C11.7804 22.4309 11.6468 22.4309 11.5577 22.4777C9.7316 19.2999 8.97444 15.8418 9.24167 12.1034C9.41982 9.29949 10.3106 6.86947 11.8695 4.86004C13.1611 3.13098 15.6553 2.28982 17.3478 2.24309C22.0689 2.14963 24.0731 8.31814 24.2068 10.7949C24.7858 10.9351 25.7656 11.2622 26.4337 11.4959C25.8992 3.92541 21.4453 0 17.1696 0C13.1611 0 9.46436 3.03752 7.99458 7.52371C5.94578 13.5053 7.28195 19.2532 9.77614 23.7861C9.55344 24.1133 9.41982 24.6273 9.46436 25.1413Z" fill="#764ABC"/>
</g>
<defs>
<clipPath id="clip0_38_536">
<rect width="35" height="35" fill="white"/>
</clipPath>
</defs>
</svg>
