<svg width="58" height="58" viewBox="0 0 59 59" fill="none" xmlns="http://www.w3.org/2000/svg">
<g id="Group">
<path id="Vector" d="M40.6879 41.0284C42.8283 40.7961 44.4521 38.8601 44.3782 36.5368C44.3044 34.2136 42.4593 32.3551 40.245 32.3551H40.0974C37.8094 32.4325 36.038 34.446 36.1118 36.8466C36.1856 38.0082 36.6285 39.0149 37.2927 39.7119C34.7833 44.9004 30.9453 48.6949 25.1883 51.87C21.2765 54.0383 17.2171 54.8127 13.1577 54.2706C9.83636 53.806 7.2531 52.2572 5.62934 49.7017C3.2675 45.9071 3.04608 41.8028 5.03888 37.6985C6.44122 34.7557 8.65544 32.5874 10.0578 31.5032C9.76256 30.4965 9.31971 28.7928 9.09829 27.5538C-1.60379 35.685 -0.496679 46.6815 2.75085 51.87C5.18649 55.742 10.1316 58.1426 15.5933 58.1426C17.0695 58.1426 18.5456 57.9878 20.0218 57.6006C29.4691 55.6646 36.6285 49.7791 40.6879 41.0284ZM53.678 31.4258C48.0686 24.5336 39.8022 20.7391 30.3548 20.7391H29.1739C28.5096 19.3451 27.1073 18.4159 25.5573 18.4159H25.4097C23.1217 18.4933 21.3503 20.5067 21.4241 22.9074C21.4979 25.2306 23.3431 27.0892 25.5573 27.0892H25.705C27.3287 27.0117 28.7311 25.9276 29.3215 24.4562H30.6501C36.2594 24.4562 41.5736 26.1599 46.371 29.4898C50.0614 32.0453 52.7185 35.3752 54.1946 39.4021C55.4494 42.6546 55.3756 45.8297 54.047 48.5401C51.9804 52.6444 48.5115 54.8902 43.9354 54.8902C40.9831 54.8902 38.1784 53.9609 36.7023 53.2639C35.8904 54.0383 34.4142 55.2774 33.3809 56.0518C36.5547 57.6006 39.8022 58.4524 42.9021 58.4524C49.9876 58.4524 55.2279 54.3481 57.2207 50.2438C59.3612 45.7522 59.2135 38.0082 53.678 31.4258ZM16.1838 42.3449C16.2576 44.6681 18.1028 46.5266 20.317 46.5266H20.4646C22.7527 46.4492 24.524 44.4357 24.4502 42.0351C24.3764 39.7119 22.5312 37.8533 20.317 37.8533H20.1694C20.0218 37.8533 19.8004 37.8533 19.6528 37.9308C16.6266 32.6648 15.3719 26.9343 15.8148 20.7391C16.11 16.0927 17.5861 12.0658 20.1694 8.73584C22.3098 5.87056 26.443 4.47663 29.2477 4.39919C37.0713 4.24431 40.3926 14.4664 40.6141 18.5707C41.5736 18.8031 43.1973 19.3451 44.3044 19.7323C43.4187 7.18704 36.038 0.682068 28.9525 0.682068C22.3098 0.682068 16.1838 5.71568 13.7482 13.1499C10.353 23.0623 12.5672 32.5874 16.7005 40.0991C16.3314 40.6412 16.11 41.493 16.1838 42.3449Z" fill="#764ABC"/>
</g>
</svg>
