<svg width="35" height="35" viewBox="0 0 35 35" fill="none" xmlns="http://www.w3.org/2000/svg">
<path fill-rule="evenodd" clip-rule="evenodd" d="M8.75 14C9.91648 9.33352 12.8335 7 17.5 7C24.5 7 25.375 12.25 28.875 13.125C31.2085 13.7085 33.25 12.8335 35 10.5C33.8335 15.1665 30.9165 17.5 26.25 17.5C19.25 17.5 18.375 12.25 14.875 11.375C12.5415 10.7915 10.5 11.6665 8.75 14ZM0 24.5C1.16648 19.8335 4.08352 17.5 8.75 17.5C15.75 17.5 16.625 22.75 20.125 23.625C22.4585 24.2085 24.5 23.3335 26.25 21C25.0835 25.6665 22.1665 28 17.5 28C10.5 28 9.625 22.75 6.125 21.875C3.79148 21.2915 1.75 22.1665 0 24.5Z" fill="url(#paint0_linear_38_399)"/>
<defs>
<linearGradient id="paint0_linear_38_399" x1="8.69734e-07" y1="-11.6665" x2="35" y2="46.6665" gradientUnits="userSpaceOnUse">
<stop stop-color="#2383AE"/>
<stop offset="1" stop-color="#6DD7B9"/>
</linearGradient>
</defs>
</svg>
