<svg width="35" height="35" viewBox="0 0 35 35" fill="none" xmlns="http://www.w3.org/2000/svg">
<g clip-path="url(#clip0_38_402)">
<path d="M0 17.5V35H35.0011V-0.00109863H0V17.5ZM28.2062 16.1055C29.0948 16.3275 29.773 16.7223 30.3953 17.3666C30.718 17.7111 31.1954 18.3389 31.2342 18.4887C31.2452 18.5325 29.7232 19.5552 28.8006 20.1277C28.7678 20.1496 28.6338 20.0058 28.4834 19.7832C28.0334 19.1269 27.5614 18.8442 26.839 18.7944C25.778 18.7223 25.089 19.2779 25.0999 20.2054C25.0999 20.4777 25.1382 20.6385 25.2498 20.8616C25.4833 21.3451 25.917 21.6338 27.2776 22.2234C29.7834 23.3007 30.8552 24.0116 31.5213 25.0234C32.2651 26.151 32.4324 27.9513 31.9271 29.2901C31.3715 30.7459 29.9939 31.7346 28.0552 32.0627C27.4553 32.1683 26.0329 32.1519 25.3887 32.0354C23.9832 31.7855 22.6499 31.0909 21.8274 30.1798C21.5048 29.8244 20.8775 28.8963 20.9163 28.8291C20.9327 28.8072 21.0777 28.718 21.239 28.6234L22.5389 27.8742L23.5452 27.2907L23.7562 27.6024C24.0505 28.0525 24.6952 28.6688 25.0841 28.8744C26.2008 29.4634 27.7342 29.3798 28.4895 28.7022C28.8121 28.408 28.945 28.1023 28.945 27.6522C28.945 27.2464 28.8958 27.0687 28.6841 26.7635C28.4118 26.3752 27.8562 26.0471 26.2779 25.3635C24.4721 24.5859 23.6945 24.1024 22.9835 23.3357C22.5723 22.8911 22.1834 22.1802 22.0221 21.5857C21.8887 21.0913 21.8553 19.8521 21.9609 19.3523C22.3327 17.6023 23.6496 16.3909 25.55 16.03C26.1669 15.9135 27.6008 15.9578 28.2056 16.1077L28.2062 16.1055ZM19.9894 17.5656L20.0003 18.9984H15.4448V31.943H12.2227V18.9984H7.66719V17.593L7.70547 16.1492C7.72188 16.1273 10.4945 16.1164 13.8556 16.1219L19.9724 16.1383L19.9894 17.5656Z" fill="#007ACC"/>
</g>
<defs>
<clipPath id="clip0_38_402">
<rect width="35" height="35" rx="8" fill="white"/>
</clipPath>
</defs>
</svg>
