<svg width="58" height="58" viewBox="0 0 59 59" fill="none" xmlns="http://www.w3.org/2000/svg">
<g id="Icon/TypeScript">
<g clip-path="url(#clip0_71_1597)">
<path id="Vector" d="M0.5 29.6819V58.6819H58.5018V0.680054H0.5V29.6819ZM47.2417 27.3709C48.7143 27.7389 49.8381 28.3932 50.8694 29.4607C51.4041 30.0317 52.1952 31.0721 52.2596 31.3204C52.2777 31.3929 49.7556 33.0876 48.2268 34.0364C48.1724 34.0726 47.9503 33.8343 47.7011 33.4655C46.9553 32.378 46.1732 31.9094 44.976 31.827C43.2179 31.7073 42.076 32.6281 42.0942 34.1651C42.0942 34.6164 42.1576 34.8828 42.3425 35.2526C42.7294 36.0537 43.4481 36.5322 45.7028 37.5091C49.8553 39.2945 51.6315 40.4726 52.7353 42.1491C53.9678 44.0178 54.2452 47.0012 53.4078 49.2197C52.487 51.6321 50.2042 53.2706 46.9915 53.8144C45.9974 53.9893 43.6402 53.9621 42.5727 53.7691C40.2436 53.3549 38.0342 52.204 36.6712 50.6942C36.1365 50.1051 35.097 48.5672 35.1613 48.4557C35.1885 48.4195 35.4287 48.2718 35.696 48.115L37.8502 46.8734L39.5177 45.9065L39.8675 46.423C40.3551 47.1689 41.4235 48.1902 42.0679 48.531C43.9184 49.507 46.4596 49.3683 47.7111 48.2455C48.2458 47.7579 48.466 47.2513 48.466 46.5055C48.466 45.8331 48.3844 45.5385 48.0337 45.0328C47.5824 44.3894 46.6617 43.8456 44.0462 42.7128C41.0538 41.4241 39.7651 40.623 38.587 39.3525C37.9055 38.6157 37.2611 37.4376 36.9938 36.4525C36.7727 35.6332 36.7174 33.5796 36.8923 32.7513C37.5085 29.8513 39.6908 27.844 42.84 27.2459C43.8623 27.0528 46.2384 27.1262 47.2408 27.3746L47.2417 27.3709ZM33.6252 29.7906L33.6434 32.165H26.0943V53.6159H20.7547V32.165H13.2056V29.8359L13.2691 27.4434C13.2963 27.4072 17.8909 27.3891 23.4608 27.3981L33.5972 27.4253L33.6252 29.7906Z" fill="#007ACC"/>
</g>
</g>
<defs>
<clipPath id="clip0_71_1597">
<rect x="0.5" y="0.682068" width="58" height="58" rx="14" fill="white"/>
</clipPath>
</defs>
</svg>
