<svg width="33" height="33" viewBox="0 0 33 33" fill="current" xmlns="http://www.w3.org/2000/svg">
<g clip-path="url(#clip0_72_828)">
<path fill-rule="evenodd" clip-rule="evenodd" d="M4.5 0.682129H28.5C30.7092 0.682129 32.5 2.47296 32.5 4.68213V28.6821C32.5 30.8913 30.7092 32.6821 28.5 32.6821H4.5C2.29083 32.6821 0.5 30.8913 0.5 28.6821V4.68213C0.5 2.47296 2.29083 0.682129 4.5 0.682129ZM8.66667 10.3355V11.5955H11.6667L13.9467 24.4355L16.9167 24.2255C19.8367 20.5255 21.8067 17.7555 22.8267 15.9155C23.8667 14.0555 24.3867 12.5055 24.3867 11.2655C24.3867 10.5255 24.1667 9.96546 23.7267 9.58546C23.3067 9.20546 22.7767 9.01546 22.1367 9.01546C20.9367 9.01546 19.9367 9.52546 19.1367 10.5455C19.9167 11.0655 20.4467 11.4955 20.7267 11.8355C21.0267 12.1555 21.1767 12.5855 21.1767 13.1255C21.1767 14.0255 20.9067 15.0455 20.3667 16.1855C19.8467 17.3255 19.2767 18.3355 18.6567 19.2155C18.2567 19.7755 17.7467 20.4655 17.1267 21.2855L15.1767 10.2155C15.0167 9.41546 14.5167 9.01546 13.6767 9.01546C13.2967 9.01546 12.5667 9.17546 11.4867 9.49546C10.4067 9.79546 9.46667 10.0755 8.66667 10.3355Z" fill="current"/>
</g>
<defs>
<clipPath id="clip0_72_828">
<rect width="32" height="32" fill="white" transform="translate(0.5 0.682129)"/>
</clipPath>
</defs>
</svg>
